<?xml version="1.0" encoding="UTF-8" standalone="no"?>
<svg
   width="24"
   height="24"
   viewBox="0 0 24 24"
   fill="none"
   stroke="currentColor"
   stroke-width="2"
   stroke-linecap="round"
   stroke-linejoin="round"
   class="icon icon-tabler icons-tabler-outline icon-tabler-wifi"
   version="1.1"
   id="svg5"
   sodipodi:docname="emercast.svg"
   inkscape:version="1.3.1 (9b9bdc1480, 2023-11-25, custom)"
   xmlns:inkscape="http://www.inkscape.org/namespaces/inkscape"
   xmlns:sodipodi="http://sodipodi.sourceforge.net/DTD/sodipodi-0.dtd"
   xmlns="http://www.w3.org/2000/svg"
   xmlns:svg="http://www.w3.org/2000/svg">
  <defs
     id="defs5" />
  <sodipodi:namedview
     id="namedview5"
     pagecolor="#ffffff"
     bordercolor="#000000"
     borderopacity="0.25"
     inkscape:showpageshadow="2"
     inkscape:pageopacity="0.0"
     inkscape:pagecheckerboard="0"
     inkscape:deskcolor="#d1d1d1"
     inkscape:zoom="24.3125"
     inkscape:cx="9.9742931"
     inkscape:cy="16.92545"
     inkscape:window-width="2170"
     inkscape:window-height="1433"
     inkscape:window-x="2006"
     inkscape:window-y="34"
     inkscape:window-maximized="1"
     inkscape:current-layer="svg5" />
  <path
     stroke="none"
     d="M0 0h24v24H0z"
     fill="none"
     id="path1" />
  <g
     id="g5"
     transform="translate(-0.015,-1.427)">
    <path
       d="m 9.172,13.172066 a 4,4 0 0 1 5.656,0"
       id="path3"
       style="stroke-width:1.3;stroke-dasharray:none" />
    <path
       d="m 6.343,11.343205 a 8,8 0 0 1 11.314,0"
       id="path4"
       style="stroke-width:1.3;stroke-dasharray:none" />
    <path
       d="m 3.515,9.514988 c 4.686,-4.6869998 12.284,-4.6869998 17,0"
       id="path5"
       style="stroke-width:1.3;stroke-dasharray:none" />
    <g
       id="g4"
       transform="matrix(0.5,0,0,0.5,6,11)"
       style="stroke-width:2;stroke-dasharray:none">
      <path
         d="m 8,16 v -4 a 4,4 0 0 1 8,0 v 4"
         id="path2-3"
         style="stroke-width:2;stroke-dasharray:none" />
      <path
         d="m 6,16 m 0,1 a 1,1 0 0 1 1,-1 h 10 a 1,1 0 0 1 1,1 v 2 a 1,1 0 0 1 -1,1 H 7 A 1,1 0 0 1 6,19 Z"
         id="path4-6"
         style="stroke-width:2;stroke-dasharray:none" />
    </g>
  </g>
</svg>
